<?xml version="1.0" standalone="no"?>
<!DOCTYPE svg PUBLIC "-//W3C//DTD SVG 20010904//EN"
 "http://www.w3.org/TR/2001/REC-SVG-20010904/DTD/svg10.dtd">
<svg version="1.0" xmlns="http://www.w3.org/2000/svg"
 width="137.000000pt" height="137.000000pt" viewBox="0 0 137.000000 137.000000"
 preserveAspectRatio="xMidYMid meet">
<metadata>
Created by potrace 1.11, written by Peter Selinger 2001-2013
</metadata>
<g transform="translate(0.000000,137.000000) scale(0.100000,-0.100000)"
fill="#000000" stroke="none">
<path d="M124 1071 c-2 -2 -4 -184 -4 -403 0 -311 3 -398 13 -399 16 -1 1088
-1 1107 0 13 1 15 51 14 399 -1 218 -2 399 -3 402 -1 6 -1120 7 -1127 1z
m1059 -41 l27 0 0 -360 0 -360 -522 0 -523 0 0 357 0 358 50 5 c28 3 250 4
495 3 245 -2 457 -3 473 -3z"/>
<path d="M811 949 c-89 -26 -164 -109 -177 -196 l-6 -44 -97 3 -96 3 0 80 0
80 113 3 112 3 0 34 0 35 -185 0 -185 0 0 -285 0 -285 70 0 c81 0 72 -19 72
158 l0 102 94 0 94 0 6 -27 c26 -119 62 -175 139 -216 34 -18 57 -21 150 -22
99 0 116 3 168 27 31 15 57 33 56 40 0 7 -14 24 -30 37 -33 25 -32 26 -109
-19 -26 -15 -47 -19 -84 -16 -100 9 -140 70 -141 216 0 73 5 106 19 138 36 80
142 103 224 47 l36 -24 38 21 c21 12 38 27 38 33 0 18 -30 41 -80 64 -50 23
-176 28 -239 10z"/>
</g>
</svg>
